<svg xmlns="http://www.w3.org/2000/svg" viewBox="0 0 920 280.07391">
	<g fill="#3f4c6b">
		<path d="M 197.2547,62.8723 C 175.00513,62.8724 155.50911,68.2354 138.46792,78.6519 L 138.46792,137.1292 C 141.33196,131.5484 144.81184,126.5491 149.29706,121.9684 161.97016,109.0314 177.98076,102.4762 197.2547,102.476 216.52835,102.4762 232.4936,109.0314 244.90293,121.9684 257.57593,134.6417 263.77639,151.1433 263.77659,171.4731 263.77639,191.8031 257.57593,208.35 244.90293,221.2871 232.4936,233.9603 216.52835,240.4702 197.2547,240.4702 177.98076,240.4702 161.97016,233.9603 149.29706,221.2871 144.80511,216.6041 141.33384,211.4687 138.46792,205.8169 L 138.46792,264.2943 C 155.52891,274.6151 174.9679,280.0739 197.2547,280.0739 228.93748,280.0739 255.34,269.6821 276.46215,248.8241 297.58395,227.7022 308.33055,201.836 308.33075,171.4731 308.33055,141.1104 297.58395,115.599 276.46215,94.7409 255.34,73.6191 228.93748,62.8725 197.2547,62.8723 z"/>
		<path d="M 441.99333,62.8723 C 410.31023,62.8725 383.90783,73.6191 362.78583,94.7409 341.66383,115.599 331.22665,141.1104 331.22665,171.4731 331.22665,201.836 341.66383,227.7022 362.78583,248.8241 383.90783,269.6821 410.31023,280.0739 441.99333,280.0739 464.06003,280.0739 483.52693,274.7219 500.47073,264.6037 L 500.47073,206.4357 C 497.59153,211.8508 494.06403,216.7725 489.64153,221.2871 477.23223,233.9603 461.26703,240.4702 441.99333,240.4702 422.71943,240.4702 407.01823,233.9603 394.34513,221.2871 381.93583,208.35 375.47133,191.8031 375.47143,171.4731 375.47133,151.1433 381.93583,134.6417 394.34513,121.9684 407.01823,109.0314 422.71943,102.4762 441.99333,102.476 461.26703,102.4762 477.23223,109.0314 489.64153,121.9684 494.05023,126.3772 497.59573,131.1751 500.47073,136.5104 L 500.47073,78.3425 C 483.54433,68.1264 464.02763,62.8724 441.99333,62.8723 z"/>
	</g>
	<g fill="#606c88">
		<path d="M 0,0 0,42.78125 83.96875,42.78125 83.96875,276.84375 83.96875,280.0625 130.6875,280.0625 130.6875,276.84375 130.6875,42.78125 214.65625,42.78125 214.65625,0 0,0 z"/>
		<path d="M 382.6875,0 382.6875,98.59375 C 365.5257,74.83165 342.81308,62.9377 314.5625,62.9375 286.5758,62.9377 262.42363,72.7124 242.09375,92.25 221.76377,111.788 211.59375,137.91735 211.59375,170.65625 211.59375,203.39535 221.47939,229.8092 241.28125,249.875 261.08302,269.9409 284.3334,279.96875 311,279.96875 342.41878,279.96875 366.3177,268.3592 382.6875,245.125 L 427.03125,276.8125 427.03125,0 382.6875,0 z M 320.5,101.75 C 338.18948,101.7502 353.1047,108.4724 365.25,121.9375 377.395,135.4028 383.46855,152.1841 383.46875,172.25 383.46855,192.3159 377.395,208.8129 365.25,221.75 353.1047,234.4232 338.33173,240.75 320.90625,240.75 303.48055,240.75 288.28085,234.4232 275.34375,221.75 262.40646,209.0769 255.9374,192.6909 255.9375,172.625 255.9374,152.2952 262.26423,135.4028 274.9375,121.9375 287.6106,108.4724 302.8102,101.7502 320.5,101.75 z"/>
		<path d="M 622.96875,62.9375 C 608.44725,62.9377 594.82935,66.63865 582.15625,74.03125 569.74705,81.42405 560.0036,91.59425 552.875,104.53125 L 552.875,66.09375 508.5,66.09375 508.5,276.8125 508.5,280.0625 552.875,280.0625 552.875,276.8125 552.875,162.75 C 552.8749,143.2123 558.55295,128.4081 569.90625,118.375 581.25925,108.0783 594.59265,102.9377 609.90625,102.9375 642.11715,102.9377 658.21855,122.34475 658.21875,161.15625 L 658.21875,276.8125 658.21875,280.0625 702.5625,280.0625 702.5625,276.8125 702.5625,147.6875 C 702.5623,120.229 695.1602,99.24025 680.375,84.71875 665.85337,70.19755 646.73085,62.9377 622.96875,62.9375 z"/>
		<path d="M 920.00006,190.857 754.85256,190.857 C 755.90856,206.1705 762.90526,218.5796 775.84246,228.0845 788.77966,237.3255 803.56496,241.9458 820.19866,241.9458 846.60106,241.9458 866.66696,233.629 880.39636,216.9955 L 905.74276,244.7181 C 883.03646,268.2163 853.46566,279.9654 817.03036,279.9654 787.45956,279.9654 762.24516,270.1965 741.38726,250.6587 720.79326,230.8568 710.49636,204.4544 710.49636,171.4512 710.49636,138.1842 721.05736,111.7818 742.17936,92.2438 763.30126,72.7062 788.11956,62.9372 816.63436,62.937 845.41296,62.9372 869.83526,71.65 889.90126,89.0755 909.96696,106.2373 919.99986,129.9995 920.00006,160.3621 L 920.00006,190.857 M 754.85256,156.0057 875.64386,156.0057 C 875.64376,138.3162 870.09926,124.7189 859.01036,115.2139 847.92116,105.7092 834.19186,100.9568 817.82246,100.9566 801.71686,100.9568 787.19546,105.9732 774.25836,116.006 761.32106,125.775 754.85256,139.1083 754.85256,156.0057"/>
	</g>
	<g fill="#3f4c6b">
		<path d="M 263.77659,171.4731 C 263.77639,191.8031 257.57593,208.35 244.90293,221.2871 232.4936,233.9603 216.52835,240.4702 197.2547,240.4702 177.98076,240.4702 161.97016,233.9603 149.29706,221.2871 144.90847,216.7119 141.29642,211.6121 138.46792,206.1263 L 138.46792,264.6037 C 155.47732,274.824 175.06493,280.0739 197.2547,280.0739 228.93748,280.0739 255.34,269.6821 276.46215,248.8241 297.58395,227.7022 308.33055,201.836 308.33075,171.4731 L 263.77659,171.4731 z"/>
		<path d="M 331.22665,171.4731 C 331.22665,201.836 341.66383,227.7022 362.78583,248.8241 383.90783,269.6821 410.31023,280.0739 441.99333,280.0739 464.18293,280.0739 483.77063,274.824 500.78013,264.6037 L 500.78013,205.8169 C 497.87783,211.4442 494.22203,216.6111 489.64153,221.2871 477.23223,233.9603 461.26703,240.4702 441.99333,240.4702 422.71943,240.4702 407.01823,233.9603 394.34513,221.2871 381.93583,208.35 375.47133,191.8031 375.47143,171.4731 L 331.22665,171.4731 z"/>
	</g>
</svg>
