<svg xmlns="http://www.w3.org/2000/svg" viewBox="0 0 512 512">
	<rect fill="#606c88" x="0" y="0" width="512" height="512"/>
	<g fill="#d7dde8">
		<path d="M 83.074307,102.53145 C 51.632407,102.53159 24.081707,110.11029 0,124.83033 L 0,207.46728 C 4.047307,199.5808 8.964907,192.51606 15.303207,186.04286 33.212107,167.76099 55.837407,158.49754 83.074307,158.49726 110.31081,158.49754 132.87201,167.76099 150.40821,186.04286 168.31701,203.95208 177.07921,227.27125 177.07951,256.00023 177.07921,284.72948 168.31701,308.11267 150.40821,326.39468 132.87201,344.30376 110.31081,353.50319 83.074307,353.50319 55.837407,353.50319 33.212107,344.30376 15.303207,326.39468 8.955407,319.77691 4.050007,312.51984 0,304.53303 L 0,387.17012 C 24.109707,401.75492 51.579807,409.469 83.074307,409.469 127.84671,409.469 165.15731,394.78387 195.00601,365.30847 224.85421,335.46015 240.04071,298.90743 240.04101,256.00023 240.04071,213.0933 224.85421,177.04197 195.00601,147.56643 165.15731,117.71825 127.84671,102.53173 83.074307,102.53145 z"/>
		<path d="M 428.92571,102.53145 C 384.15291,102.53173 346.84241,117.71825 316.99401,147.56643 287.14551,177.04197 272.39621,213.0933 272.39621,256.00023 272.39621,298.90743 287.14551,335.46015 316.99401,365.30847 346.84241,394.78387 384.15291,409.469 428.92571,409.469 460.10921,409.469 487.61871,401.90584 512,387.60735 L 512,305.40748 C 507.49411,313.05981 502.50921,320.01489 496.25961,326.39468 478.72341,344.30376 456.16221,353.50319 428.92571,353.50319 401.68891,353.50319 379.50081,344.30376 361.59191,326.39468 344.05571,308.11267 334.92041,284.72948 334.92061,256.00023 334.92041,227.27125 344.05571,203.95208 361.59191,186.04286 379.50081,167.76099 401.68891,158.49754 428.92571,158.49726 456.16221,158.49754 478.72341,167.76099 496.25961,186.04286 502.48971,192.27314 507.50001,199.05327 512,206.59283 L 512,124.3931 C 487.64331,109.95626 460.06341,102.53159 428.92571,102.53145 z"/>
	</g>
	<path fill="#ffffff" d="M 345.10591,0 345.10591,13.6875 345.10591,153 C 320.85381,119.42069 288.77811,102.62528 248.85591,102.625 209.30671,102.62528 175.17881,116.42177 146.44971,144.03125 117.72051,171.64129 103.32471,208.57891 103.32471,254.84375 103.32471,301.10888 117.31051,338.42535 145.29351,366.78125 173.27621,395.1373 206.14091,409.3125 243.82471,409.3125 288.22401,409.3125 321.97301,392.92706 345.10591,360.09375 L 407.79351,404.875 407.79351,13.6875 407.79351,0 345.10591,0 z M 257.23091,157.46875 C 282.22881,157.46903 303.31791,166.97185 320.48091,186 337.64361,205.02844 346.23071,228.73771 346.23091,257.09375 346.23061,285.4498 337.64351,308.78049 320.48091,327.0625 303.31791,344.97158 282.44941,353.90625 257.82471,353.90625 233.19961,353.90625 211.70041,344.97158 193.41851,327.0625 175.13621,309.15357 166.01201,285.98105 166.01221,257.625 166.01201,228.89603 174.94681,205.02844 192.85591,186 210.76491,166.97185 232.23261,157.46903 257.23091,157.46875 z"/>
	<g fill="#d7dde8">
		<path d="M 177.07952,256.00023 C 177.07923,284.72948 168.31708,308.11267 150.40828,326.39468 132.87209,344.30376 110.31086,353.50319 83.074381,353.50319 55.837491,353.50319 33.212178,344.30376 15.303238,326.39468 9.1015203,319.92925 3.9971666,312.72249 0,304.97025 L 0,387.60735 C 24.036847,402.05013 51.716998,409.469 83.074381,409.469 127.84677,409.469 165.15738,394.78387 195.00606,365.30847 224.85425,335.46015 240.04076,298.90743 240.04105,256.00023 L 177.07952,256.00023 z"/>
		<path d="M 272.39629,256.00023 C 272.39629,298.90743 287.14555,335.46015 316.99402,365.30847 346.84249,394.78387 384.15293,409.469 428.92577,409.469 460.28291,409.469 487.96319,402.05013 512,387.60735 L 512,304.53303 C 507.89872,312.48522 502.73255,319.7868 496.25963,326.39468 478.72348,344.30376 456.16232,353.50319 428.92577,353.50319 401.68894,353.50319 379.50085,344.30376 361.59191,326.39468 344.05576,308.11267 334.92048,284.72948 334.92062,256.00023 L 272.39629,256.00023 z"/>
	</g>
</svg>
